<mxfile host="app.diagrams.net" modified="2022-09-02T17:19:16.631Z" agent="5.0 (Windows NT 10.0; Win64; x64) AppleWebKit/537.36 (KHTML, like Gecko) Chrome/104.0.0.0 Safari/537.36" etag="9vFoY2LehLCgBhwaYCbq" version="20.2.8" type="github" pages="4">
  <diagram id="idcZyioz9EAjbL1xCykc" name="Ventas">
    <mxGraphModel dx="1662" dy="717" grid="1" gridSize="10" guides="1" tooltips="1" connect="1" arrows="1" fold="1" page="1" pageScale="1" pageWidth="827" pageHeight="1169" math="0" shadow="0">
      <root>
        <mxCell id="0" />
        <mxCell id="1" parent="0" />
        <mxCell id="dQnE4CJ4zekIvVhXKhrI-1" value="Pool" style="swimlane;childLayout=stackLayout;resizeParent=1;resizeParentMax=0;startSize=20;horizontal=0;horizontalStack=1;" parent="1" vertex="1">
          <mxGeometry x="40" y="40" width="770" height="1070" as="geometry" />
        </mxCell>
        <mxCell id="dQnE4CJ4zekIvVhXKhrI-2" value="Ventas" style="swimlane;startSize=20;" parent="dQnE4CJ4zekIvVhXKhrI-1" vertex="1">
          <mxGeometry x="20" width="220" height="1070" as="geometry" />
        </mxCell>
        <mxCell id="dQnE4CJ4zekIvVhXKhrI-8" value="" style="edgeStyle=orthogonalEdgeStyle;rounded=0;orthogonalLoop=1;jettySize=auto;html=1;" parent="dQnE4CJ4zekIvVhXKhrI-2" source="dQnE4CJ4zekIvVhXKhrI-6" target="dQnE4CJ4zekIvVhXKhrI-7" edge="1">
          <mxGeometry relative="1" as="geometry" />
        </mxCell>
        <mxCell id="dQnE4CJ4zekIvVhXKhrI-6" value="Inicio" style="ellipse;whiteSpace=wrap;html=1;" parent="dQnE4CJ4zekIvVhXKhrI-2" vertex="1">
          <mxGeometry x="50" y="30" width="120" height="80" as="geometry" />
        </mxCell>
        <mxCell id="dQnE4CJ4zekIvVhXKhrI-7" value="Hace traspaso a OTC una vez que se concreta la venta" style="whiteSpace=wrap;html=1;" parent="dQnE4CJ4zekIvVhXKhrI-2" vertex="1">
          <mxGeometry x="50" y="210" width="120" height="60" as="geometry" />
        </mxCell>
        <mxCell id="dQnE4CJ4zekIvVhXKhrI-3" value="Finanzas" style="swimlane;startSize=20;" parent="dQnE4CJ4zekIvVhXKhrI-1" vertex="1">
          <mxGeometry x="240" width="280" height="1070" as="geometry" />
        </mxCell>
        <mxCell id="dQnE4CJ4zekIvVhXKhrI-11" value="Crea orden de ventas y da entrada de la venta" style="shape=document;whiteSpace=wrap;html=1;boundedLbl=1;" parent="dQnE4CJ4zekIvVhXKhrI-3" vertex="1">
          <mxGeometry x="50" y="200" width="120" height="80" as="geometry" />
        </mxCell>
        <mxCell id="dQnE4CJ4zekIvVhXKhrI-18" value="" style="edgeStyle=orthogonalEdgeStyle;rounded=0;orthogonalLoop=1;jettySize=auto;html=1;exitX=1;exitY=0.5;exitDx=0;exitDy=0;" parent="dQnE4CJ4zekIvVhXKhrI-3" source="dQnE4CJ4zekIvVhXKhrI-13" target="dQnE4CJ4zekIvVhXKhrI-17" edge="1">
          <mxGeometry relative="1" as="geometry" />
        </mxCell>
        <mxCell id="dQnE4CJ4zekIvVhXKhrI-34" value="Sí" style="edgeLabel;html=1;align=center;verticalAlign=middle;resizable=0;points=[];" parent="dQnE4CJ4zekIvVhXKhrI-18" vertex="1" connectable="0">
          <mxGeometry x="-0.2" y="-1" relative="1" as="geometry">
            <mxPoint as="offset" />
          </mxGeometry>
        </mxCell>
        <mxCell id="dQnE4CJ4zekIvVhXKhrI-13" value="¿Factura anticipo?" style="rhombus;whiteSpace=wrap;html=1;" parent="dQnE4CJ4zekIvVhXKhrI-3" vertex="1">
          <mxGeometry x="70" y="300" width="80" height="80" as="geometry" />
        </mxCell>
        <mxCell id="dQnE4CJ4zekIvVhXKhrI-14" value="" style="edgeStyle=orthogonalEdgeStyle;rounded=0;orthogonalLoop=1;jettySize=auto;html=1;" parent="dQnE4CJ4zekIvVhXKhrI-3" source="dQnE4CJ4zekIvVhXKhrI-11" target="dQnE4CJ4zekIvVhXKhrI-13" edge="1">
          <mxGeometry relative="1" as="geometry" />
        </mxCell>
        <mxCell id="dQnE4CJ4zekIvVhXKhrI-17" value="Genera factura anticipo y la manda a cobranza" style="shape=document;whiteSpace=wrap;html=1;boundedLbl=1;" parent="dQnE4CJ4zekIvVhXKhrI-3" vertex="1">
          <mxGeometry x="110" y="420" width="120" height="80" as="geometry" />
        </mxCell>
        <mxCell id="dQnE4CJ4zekIvVhXKhrI-28" value="" style="edgeStyle=orthogonalEdgeStyle;rounded=0;orthogonalLoop=1;jettySize=auto;html=1;" parent="dQnE4CJ4zekIvVhXKhrI-3" source="dQnE4CJ4zekIvVhXKhrI-26" target="dQnE4CJ4zekIvVhXKhrI-27" edge="1">
          <mxGeometry relative="1" as="geometry" />
        </mxCell>
        <mxCell id="dQnE4CJ4zekIvVhXKhrI-26" value="Entrega de mercancías" style="shape=process;whiteSpace=wrap;html=1;backgroundOutline=1;" parent="dQnE4CJ4zekIvVhXKhrI-3" vertex="1">
          <mxGeometry x="10" y="545" width="120" height="60" as="geometry" />
        </mxCell>
        <mxCell id="dQnE4CJ4zekIvVhXKhrI-27" value="Factura final" style="shape=document;whiteSpace=wrap;html=1;boundedLbl=1;" parent="dQnE4CJ4zekIvVhXKhrI-3" vertex="1">
          <mxGeometry x="10" y="640" width="120" height="80" as="geometry" />
        </mxCell>
        <mxCell id="dQnE4CJ4zekIvVhXKhrI-30" value="Declara ingresos por productos entregados&amp;nbsp;" style="shape=document;whiteSpace=wrap;html=1;boundedLbl=1;" parent="dQnE4CJ4zekIvVhXKhrI-3" vertex="1">
          <mxGeometry x="10" y="730" width="120" height="80" as="geometry" />
        </mxCell>
        <mxCell id="dQnE4CJ4zekIvVhXKhrI-31" value="" style="edgeStyle=orthogonalEdgeStyle;rounded=0;orthogonalLoop=1;jettySize=auto;html=1;" parent="dQnE4CJ4zekIvVhXKhrI-3" source="dQnE4CJ4zekIvVhXKhrI-27" target="dQnE4CJ4zekIvVhXKhrI-30" edge="1">
          <mxGeometry relative="1" as="geometry" />
        </mxCell>
        <mxCell id="dQnE4CJ4zekIvVhXKhrI-12" value="" style="edgeStyle=orthogonalEdgeStyle;rounded=0;orthogonalLoop=1;jettySize=auto;html=1;" parent="dQnE4CJ4zekIvVhXKhrI-1" source="dQnE4CJ4zekIvVhXKhrI-7" target="dQnE4CJ4zekIvVhXKhrI-11" edge="1">
          <mxGeometry relative="1" as="geometry" />
        </mxCell>
        <mxCell id="dQnE4CJ4zekIvVhXKhrI-4" value="Cred y cobr" style="swimlane;startSize=20;" parent="dQnE4CJ4zekIvVhXKhrI-1" vertex="1">
          <mxGeometry x="520" width="250" height="1070" as="geometry" />
        </mxCell>
        <mxCell id="dQnE4CJ4zekIvVhXKhrI-24" value="Aplica pago anticipo y se declara el ingreso de recursos" style="shape=document;whiteSpace=wrap;html=1;boundedLbl=1;" parent="dQnE4CJ4zekIvVhXKhrI-4" vertex="1">
          <mxGeometry x="60" y="420" width="120" height="80" as="geometry" />
        </mxCell>
        <mxCell id="dQnE4CJ4zekIvVhXKhrI-37" value="" style="edgeStyle=orthogonalEdgeStyle;rounded=0;orthogonalLoop=1;jettySize=auto;html=1;" parent="dQnE4CJ4zekIvVhXKhrI-4" source="dQnE4CJ4zekIvVhXKhrI-32" target="dQnE4CJ4zekIvVhXKhrI-36" edge="1">
          <mxGeometry relative="1" as="geometry" />
        </mxCell>
        <mxCell id="dQnE4CJ4zekIvVhXKhrI-32" value="Proceso de cobranza" style="shape=process;whiteSpace=wrap;html=1;backgroundOutline=1;" parent="dQnE4CJ4zekIvVhXKhrI-4" vertex="1">
          <mxGeometry x="50" y="740" width="120" height="60" as="geometry" />
        </mxCell>
        <mxCell id="dQnE4CJ4zekIvVhXKhrI-36" value="Aplica pago y declara el ingreso de recursos" style="shape=document;whiteSpace=wrap;html=1;boundedLbl=1;" parent="dQnE4CJ4zekIvVhXKhrI-4" vertex="1">
          <mxGeometry x="50" y="830" width="120" height="80" as="geometry" />
        </mxCell>
        <mxCell id="dQnE4CJ4zekIvVhXKhrI-39" value="Fin" style="ellipse;whiteSpace=wrap;html=1;" parent="dQnE4CJ4zekIvVhXKhrI-4" vertex="1">
          <mxGeometry x="50" y="950" width="120" height="60" as="geometry" />
        </mxCell>
        <mxCell id="dQnE4CJ4zekIvVhXKhrI-40" value="" style="edgeStyle=orthogonalEdgeStyle;rounded=0;orthogonalLoop=1;jettySize=auto;html=1;" parent="dQnE4CJ4zekIvVhXKhrI-4" source="dQnE4CJ4zekIvVhXKhrI-36" target="dQnE4CJ4zekIvVhXKhrI-39" edge="1">
          <mxGeometry relative="1" as="geometry" />
        </mxCell>
        <mxCell id="dQnE4CJ4zekIvVhXKhrI-25" value="" style="edgeStyle=orthogonalEdgeStyle;rounded=0;orthogonalLoop=1;jettySize=auto;html=1;" parent="dQnE4CJ4zekIvVhXKhrI-1" source="dQnE4CJ4zekIvVhXKhrI-17" target="dQnE4CJ4zekIvVhXKhrI-24" edge="1">
          <mxGeometry relative="1" as="geometry" />
        </mxCell>
        <mxCell id="dQnE4CJ4zekIvVhXKhrI-29" style="edgeStyle=orthogonalEdgeStyle;rounded=0;orthogonalLoop=1;jettySize=auto;html=1;entryX=1;entryY=0.5;entryDx=0;entryDy=0;" parent="dQnE4CJ4zekIvVhXKhrI-1" source="dQnE4CJ4zekIvVhXKhrI-24" target="dQnE4CJ4zekIvVhXKhrI-26" edge="1">
          <mxGeometry relative="1" as="geometry">
            <Array as="points">
              <mxPoint x="690" y="575" />
            </Array>
          </mxGeometry>
        </mxCell>
        <mxCell id="dQnE4CJ4zekIvVhXKhrI-38" style="edgeStyle=orthogonalEdgeStyle;rounded=0;orthogonalLoop=1;jettySize=auto;html=1;" parent="dQnE4CJ4zekIvVhXKhrI-1" source="dQnE4CJ4zekIvVhXKhrI-30" target="dQnE4CJ4zekIvVhXKhrI-32" edge="1">
          <mxGeometry relative="1" as="geometry" />
        </mxCell>
        <mxCell id="dQnE4CJ4zekIvVhXKhrI-23" value="No" style="edgeStyle=orthogonalEdgeStyle;rounded=0;orthogonalLoop=1;jettySize=auto;html=1;exitX=0;exitY=0.5;exitDx=0;exitDy=0;" parent="1" source="dQnE4CJ4zekIvVhXKhrI-13" edge="1">
          <mxGeometry relative="1" as="geometry">
            <mxPoint x="330" y="590" as="targetPoint" />
            <Array as="points">
              <mxPoint x="330" y="380" />
              <mxPoint x="330" y="580" />
            </Array>
          </mxGeometry>
        </mxCell>
      </root>
    </mxGraphModel>
  </diagram>
  <diagram id="LKHNVEcDkvlsCZjcCm3L" name="Compras">
    <mxGraphModel dx="1662" dy="717" grid="1" gridSize="10" guides="1" tooltips="1" connect="1" arrows="1" fold="1" page="1" pageScale="1" pageWidth="827" pageHeight="1169" math="0" shadow="0">
      <root>
        <mxCell id="0" />
        <mxCell id="1" parent="0" />
        <mxCell id="694TZ4X-pZdyBSEo69BS-1" value="Pool" style="swimlane;childLayout=stackLayout;resizeParent=1;resizeParentMax=0;startSize=20;horizontal=0;horizontalStack=1;" parent="1" vertex="1">
          <mxGeometry x="40" y="40" width="870" height="800" as="geometry" />
        </mxCell>
        <mxCell id="694TZ4X-pZdyBSEo69BS-2" value="Area solicitante" style="swimlane;startSize=20;" parent="694TZ4X-pZdyBSEo69BS-1" vertex="1">
          <mxGeometry x="20" width="220" height="800" as="geometry" />
        </mxCell>
        <mxCell id="694TZ4X-pZdyBSEo69BS-3" value="" style="edgeStyle=orthogonalEdgeStyle;rounded=0;orthogonalLoop=1;jettySize=auto;html=1;" parent="694TZ4X-pZdyBSEo69BS-2" source="694TZ4X-pZdyBSEo69BS-4" edge="1">
          <mxGeometry relative="1" as="geometry">
            <mxPoint x="110" y="210" as="targetPoint" />
          </mxGeometry>
        </mxCell>
        <mxCell id="694TZ4X-pZdyBSEo69BS-4" value="Inicio" style="ellipse;whiteSpace=wrap;html=1;" parent="694TZ4X-pZdyBSEo69BS-2" vertex="1">
          <mxGeometry x="50" y="30" width="120" height="80" as="geometry" />
        </mxCell>
        <mxCell id="zx3rkGqe9EATHNWS4IQc-1" value="Genera solicitud de compra" style="shape=document;whiteSpace=wrap;html=1;boundedLbl=1;" parent="694TZ4X-pZdyBSEo69BS-2" vertex="1">
          <mxGeometry x="60" y="200" width="120" height="80" as="geometry" />
        </mxCell>
        <mxCell id="zx3rkGqe9EATHNWS4IQc-6" value="Compras" style="swimlane;startSize=20;" parent="694TZ4X-pZdyBSEo69BS-1" vertex="1">
          <mxGeometry x="240" width="220" height="800" as="geometry" />
        </mxCell>
        <mxCell id="zx3rkGqe9EATHNWS4IQc-12" value="Proceso de compras" style="shape=process;whiteSpace=wrap;html=1;backgroundOutline=1;" parent="zx3rkGqe9EATHNWS4IQc-6" vertex="1">
          <mxGeometry x="50" y="210" width="120" height="60" as="geometry" />
        </mxCell>
        <mxCell id="zx3rkGqe9EATHNWS4IQc-19" value="Recepción de materiales" style="shape=process;whiteSpace=wrap;html=1;backgroundOutline=1;" parent="zx3rkGqe9EATHNWS4IQc-6" vertex="1">
          <mxGeometry x="50" y="480" width="120" height="60" as="geometry" />
        </mxCell>
        <mxCell id="694TZ4X-pZdyBSEo69BS-6" value="Finanzas" style="swimlane;startSize=20;" parent="694TZ4X-pZdyBSEo69BS-1" vertex="1">
          <mxGeometry x="460" width="210" height="800" as="geometry" />
        </mxCell>
        <mxCell id="zx3rkGqe9EATHNWS4IQc-15" value="Crea aprovisionamiento por la compra" style="shape=document;whiteSpace=wrap;html=1;boundedLbl=1;" parent="694TZ4X-pZdyBSEo69BS-6" vertex="1">
          <mxGeometry x="50" y="340" width="120" height="80" as="geometry" />
        </mxCell>
        <mxCell id="zx3rkGqe9EATHNWS4IQc-23" value="Recibe factura y autoriza pago" style="shape=document;whiteSpace=wrap;html=1;boundedLbl=1;" parent="694TZ4X-pZdyBSEo69BS-6" vertex="1">
          <mxGeometry x="40" y="570" width="120" height="80" as="geometry" />
        </mxCell>
        <mxCell id="694TZ4X-pZdyBSEo69BS-21" value="Cuentas por pagar" style="swimlane;startSize=20;" parent="694TZ4X-pZdyBSEo69BS-1" vertex="1">
          <mxGeometry x="670" width="200" height="800" as="geometry" />
        </mxCell>
        <mxCell id="694TZ4X-pZdyBSEo69BS-26" value="Fin" style="ellipse;whiteSpace=wrap;html=1;" parent="694TZ4X-pZdyBSEo69BS-21" vertex="1">
          <mxGeometry x="30" y="690" width="120" height="60" as="geometry" />
        </mxCell>
        <mxCell id="zx3rkGqe9EATHNWS4IQc-27" value="" style="edgeStyle=orthogonalEdgeStyle;rounded=0;orthogonalLoop=1;jettySize=auto;html=1;" parent="694TZ4X-pZdyBSEo69BS-21" source="zx3rkGqe9EATHNWS4IQc-24" target="694TZ4X-pZdyBSEo69BS-26" edge="1">
          <mxGeometry relative="1" as="geometry" />
        </mxCell>
        <mxCell id="zx3rkGqe9EATHNWS4IQc-24" value="Pago efectuado y diminución de recursos" style="shape=document;whiteSpace=wrap;html=1;boundedLbl=1;" parent="694TZ4X-pZdyBSEo69BS-21" vertex="1">
          <mxGeometry x="30" y="570" width="120" height="80" as="geometry" />
        </mxCell>
        <mxCell id="zx3rkGqe9EATHNWS4IQc-11" value="" style="edgeStyle=orthogonalEdgeStyle;rounded=0;orthogonalLoop=1;jettySize=auto;html=1;" parent="694TZ4X-pZdyBSEo69BS-1" source="zx3rkGqe9EATHNWS4IQc-1" edge="1">
          <mxGeometry relative="1" as="geometry">
            <mxPoint x="290" y="240" as="targetPoint" />
          </mxGeometry>
        </mxCell>
        <mxCell id="zx3rkGqe9EATHNWS4IQc-20" value="" style="edgeStyle=orthogonalEdgeStyle;rounded=0;orthogonalLoop=1;jettySize=auto;html=1;" parent="694TZ4X-pZdyBSEo69BS-1" target="zx3rkGqe9EATHNWS4IQc-19" edge="1">
          <mxGeometry relative="1" as="geometry">
            <mxPoint x="560" y="430" as="sourcePoint" />
          </mxGeometry>
        </mxCell>
        <mxCell id="zx3rkGqe9EATHNWS4IQc-22" value="" style="edgeStyle=orthogonalEdgeStyle;rounded=0;orthogonalLoop=1;jettySize=auto;html=1;" parent="694TZ4X-pZdyBSEo69BS-1" source="zx3rkGqe9EATHNWS4IQc-19" edge="1">
          <mxGeometry relative="1" as="geometry">
            <mxPoint x="500" y="610" as="targetPoint" />
            <Array as="points">
              <mxPoint x="360" y="610" />
            </Array>
          </mxGeometry>
        </mxCell>
        <mxCell id="zx3rkGqe9EATHNWS4IQc-25" value="" style="edgeStyle=orthogonalEdgeStyle;rounded=0;orthogonalLoop=1;jettySize=auto;html=1;" parent="694TZ4X-pZdyBSEo69BS-1" source="zx3rkGqe9EATHNWS4IQc-23" target="zx3rkGqe9EATHNWS4IQc-24" edge="1">
          <mxGeometry relative="1" as="geometry" />
        </mxCell>
        <mxCell id="zx3rkGqe9EATHNWS4IQc-16" value="" style="edgeStyle=orthogonalEdgeStyle;rounded=0;orthogonalLoop=1;jettySize=auto;html=1;" parent="1" source="zx3rkGqe9EATHNWS4IQc-13" target="zx3rkGqe9EATHNWS4IQc-15" edge="1">
          <mxGeometry relative="1" as="geometry" />
        </mxCell>
        <mxCell id="zx3rkGqe9EATHNWS4IQc-13" value="Indica decisión de compra" style="whiteSpace=wrap;html=1;" parent="1" vertex="1">
          <mxGeometry x="330" y="390" width="120" height="60" as="geometry" />
        </mxCell>
        <mxCell id="zx3rkGqe9EATHNWS4IQc-14" value="" style="edgeStyle=orthogonalEdgeStyle;rounded=0;orthogonalLoop=1;jettySize=auto;html=1;" parent="1" source="zx3rkGqe9EATHNWS4IQc-12" target="zx3rkGqe9EATHNWS4IQc-13" edge="1">
          <mxGeometry relative="1" as="geometry" />
        </mxCell>
      </root>
    </mxGraphModel>
  </diagram>
  <diagram id="6wKVWaQOJDnwYGSpFhCs" name="Inventario">
    <mxGraphModel dx="1662" dy="717" grid="1" gridSize="10" guides="1" tooltips="1" connect="1" arrows="1" fold="1" page="1" pageScale="1" pageWidth="827" pageHeight="1169" math="0" shadow="0">
      <root>
        <mxCell id="0" />
        <mxCell id="1" parent="0" />
        <mxCell id="ezFopGbVYxt5OhZ2PyG2-1" value="Pool" style="swimlane;childLayout=stackLayout;resizeParent=1;resizeParentMax=0;startSize=20;horizontal=0;horizontalStack=1;" parent="1" vertex="1">
          <mxGeometry x="40" y="40" width="740" height="940" as="geometry" />
        </mxCell>
        <mxCell id="ezFopGbVYxt5OhZ2PyG2-2" value="Almacén" style="swimlane;startSize=20;" parent="ezFopGbVYxt5OhZ2PyG2-1" vertex="1">
          <mxGeometry x="20" width="220" height="940" as="geometry" />
        </mxCell>
        <mxCell id="A4vB2wqrCFxX32Vltb6z-1" value="" style="edgeStyle=orthogonalEdgeStyle;rounded=0;orthogonalLoop=1;jettySize=auto;html=1;" parent="ezFopGbVYxt5OhZ2PyG2-2" source="ezFopGbVYxt5OhZ2PyG2-4" target="ezFopGbVYxt5OhZ2PyG2-8" edge="1">
          <mxGeometry relative="1" as="geometry" />
        </mxCell>
        <mxCell id="ezFopGbVYxt5OhZ2PyG2-4" value="Inicio" style="ellipse;whiteSpace=wrap;html=1;" parent="ezFopGbVYxt5OhZ2PyG2-2" vertex="1">
          <mxGeometry x="50" y="30" width="120" height="80" as="geometry" />
        </mxCell>
        <mxCell id="A4vB2wqrCFxX32Vltb6z-5" value="" style="edgeStyle=orthogonalEdgeStyle;rounded=0;orthogonalLoop=1;jettySize=auto;html=1;" parent="ezFopGbVYxt5OhZ2PyG2-2" source="ezFopGbVYxt5OhZ2PyG2-8" target="A4vB2wqrCFxX32Vltb6z-4" edge="1">
          <mxGeometry relative="1" as="geometry" />
        </mxCell>
        <mxCell id="ezFopGbVYxt5OhZ2PyG2-8" value="Recepción/entrega de mercancía" style="shape=process;whiteSpace=wrap;html=1;backgroundOutline=1;" parent="ezFopGbVYxt5OhZ2PyG2-2" vertex="1">
          <mxGeometry x="40" y="150" width="140" height="60" as="geometry" />
        </mxCell>
        <mxCell id="A4vB2wqrCFxX32Vltb6z-4" value="Genera entrada/salida de mercancías" style="shape=document;whiteSpace=wrap;html=1;boundedLbl=1;" parent="ezFopGbVYxt5OhZ2PyG2-2" vertex="1">
          <mxGeometry x="50" y="250" width="120" height="80" as="geometry" />
        </mxCell>
        <mxCell id="ezFopGbVYxt5OhZ2PyG2-10" value="Finanzas" style="swimlane;startSize=20;" parent="ezFopGbVYxt5OhZ2PyG2-1" vertex="1">
          <mxGeometry x="240" width="200" height="940" as="geometry" />
        </mxCell>
        <mxCell id="ezFopGbVYxt5OhZ2PyG2-12" value="Crea factura de deudores/recibe factura de proveedores&amp;nbsp;" style="shape=document;whiteSpace=wrap;html=1;boundedLbl=1;" parent="ezFopGbVYxt5OhZ2PyG2-10" vertex="1">
          <mxGeometry x="40" y="410" width="120" height="80" as="geometry" />
        </mxCell>
        <mxCell id="ezFopGbVYxt5OhZ2PyG2-15" value="Cuentas por cobrar/pagar" style="swimlane;startSize=20;" parent="ezFopGbVYxt5OhZ2PyG2-1" vertex="1">
          <mxGeometry x="440" width="300" height="940" as="geometry" />
        </mxCell>
        <mxCell id="ezFopGbVYxt5OhZ2PyG2-16" value="Fin" style="ellipse;whiteSpace=wrap;html=1;" parent="ezFopGbVYxt5OhZ2PyG2-15" vertex="1">
          <mxGeometry x="85" y="840" width="120" height="60" as="geometry" />
        </mxCell>
        <mxCell id="ezFopGbVYxt5OhZ2PyG2-17" value="" style="edgeStyle=orthogonalEdgeStyle;rounded=0;orthogonalLoop=1;jettySize=auto;html=1;" parent="ezFopGbVYxt5OhZ2PyG2-15" source="ezFopGbVYxt5OhZ2PyG2-18" target="ezFopGbVYxt5OhZ2PyG2-16" edge="1">
          <mxGeometry relative="1" as="geometry" />
        </mxCell>
        <mxCell id="ezFopGbVYxt5OhZ2PyG2-18" value="Pago efectuado y diminución de recursos" style="shape=document;whiteSpace=wrap;html=1;boundedLbl=1;" parent="ezFopGbVYxt5OhZ2PyG2-15" vertex="1">
          <mxGeometry x="165" y="690" width="120" height="80" as="geometry" />
        </mxCell>
        <mxCell id="mkBv0TEwSFkfjX52-f3R-12" value="" style="edgeStyle=orthogonalEdgeStyle;rounded=0;orthogonalLoop=1;jettySize=auto;html=1;" parent="ezFopGbVYxt5OhZ2PyG2-15" source="mkBv0TEwSFkfjX52-f3R-6" target="mkBv0TEwSFkfjX52-f3R-11" edge="1">
          <mxGeometry relative="1" as="geometry" />
        </mxCell>
        <mxCell id="mkBv0TEwSFkfjX52-f3R-6" value="Gestiona cobro/pago de la factura" style="whiteSpace=wrap;html=1;" parent="ezFopGbVYxt5OhZ2PyG2-15" vertex="1">
          <mxGeometry x="80" y="420" width="120" height="60" as="geometry" />
        </mxCell>
        <mxCell id="mkBv0TEwSFkfjX52-f3R-9" style="edgeStyle=orthogonalEdgeStyle;rounded=0;orthogonalLoop=1;jettySize=auto;html=1;entryX=0.5;entryY=0;entryDx=0;entryDy=0;" parent="ezFopGbVYxt5OhZ2PyG2-15" source="mkBv0TEwSFkfjX52-f3R-8" target="ezFopGbVYxt5OhZ2PyG2-16" edge="1">
          <mxGeometry relative="1" as="geometry" />
        </mxCell>
        <mxCell id="mkBv0TEwSFkfjX52-f3R-8" value="Pago recibido y diminución de recursos" style="shape=document;whiteSpace=wrap;html=1;boundedLbl=1;" parent="ezFopGbVYxt5OhZ2PyG2-15" vertex="1">
          <mxGeometry x="15" y="690" width="120" height="80" as="geometry" />
        </mxCell>
        <mxCell id="mkBv0TEwSFkfjX52-f3R-13" value="Cobro" style="edgeStyle=orthogonalEdgeStyle;rounded=0;orthogonalLoop=1;jettySize=auto;html=1;entryX=0.5;entryY=0;entryDx=0;entryDy=0;" parent="ezFopGbVYxt5OhZ2PyG2-15" source="mkBv0TEwSFkfjX52-f3R-11" target="mkBv0TEwSFkfjX52-f3R-8" edge="1">
          <mxGeometry relative="1" as="geometry" />
        </mxCell>
        <mxCell id="mkBv0TEwSFkfjX52-f3R-14" value="Pago" style="edgeStyle=orthogonalEdgeStyle;rounded=0;orthogonalLoop=1;jettySize=auto;html=1;" parent="ezFopGbVYxt5OhZ2PyG2-15" source="mkBv0TEwSFkfjX52-f3R-11" target="ezFopGbVYxt5OhZ2PyG2-18" edge="1">
          <mxGeometry relative="1" as="geometry" />
        </mxCell>
        <mxCell id="mkBv0TEwSFkfjX52-f3R-11" value="¿Cobro o pago?" style="rhombus;whiteSpace=wrap;html=1;" parent="ezFopGbVYxt5OhZ2PyG2-15" vertex="1">
          <mxGeometry x="100" y="560" width="80" height="80" as="geometry" />
        </mxCell>
        <mxCell id="mkBv0TEwSFkfjX52-f3R-7" value="" style="edgeStyle=orthogonalEdgeStyle;rounded=0;orthogonalLoop=1;jettySize=auto;html=1;" parent="ezFopGbVYxt5OhZ2PyG2-1" source="ezFopGbVYxt5OhZ2PyG2-12" target="mkBv0TEwSFkfjX52-f3R-6" edge="1">
          <mxGeometry relative="1" as="geometry" />
        </mxCell>
        <mxCell id="mkBv0TEwSFkfjX52-f3R-4" value="" style="edgeStyle=orthogonalEdgeStyle;rounded=0;orthogonalLoop=1;jettySize=auto;html=1;" parent="1" source="mkBv0TEwSFkfjX52-f3R-1" target="ezFopGbVYxt5OhZ2PyG2-12" edge="1">
          <mxGeometry relative="1" as="geometry" />
        </mxCell>
        <mxCell id="mkBv0TEwSFkfjX52-f3R-1" value="Afectación en la cuenta de inventarios" style="shape=document;whiteSpace=wrap;html=1;boundedLbl=1;" parent="1" vertex="1">
          <mxGeometry x="110" y="450" width="120" height="80" as="geometry" />
        </mxCell>
        <mxCell id="mkBv0TEwSFkfjX52-f3R-2" value="" style="edgeStyle=orthogonalEdgeStyle;rounded=0;orthogonalLoop=1;jettySize=auto;html=1;" parent="1" source="A4vB2wqrCFxX32Vltb6z-4" target="mkBv0TEwSFkfjX52-f3R-1" edge="1">
          <mxGeometry relative="1" as="geometry" />
        </mxCell>
      </root>
    </mxGraphModel>
  </diagram>
  <diagram id="IUpkRZwXBkO5mIcEFJma" name="V. Original">
    <mxGraphModel dx="1662" dy="717" grid="1" gridSize="10" guides="1" tooltips="1" connect="1" arrows="1" fold="1" page="1" pageScale="1" pageWidth="827" pageHeight="1169" math="0" shadow="0">
      <root>
        <mxCell id="0" />
        <mxCell id="1" parent="0" />
        <mxCell id="UVJIutuFLbWsA_wfHDbJ-1" value="Pool" style="swimlane;childLayout=stackLayout;resizeParent=1;resizeParentMax=0;startSize=20;horizontal=0;horizontalStack=1;" parent="1" vertex="1">
          <mxGeometry x="40" y="40" width="770" height="1040" as="geometry" />
        </mxCell>
        <mxCell id="UVJIutuFLbWsA_wfHDbJ-2" value="Ventas" style="swimlane;startSize=20;" parent="UVJIutuFLbWsA_wfHDbJ-1" vertex="1">
          <mxGeometry x="20" width="220" height="1040" as="geometry" />
        </mxCell>
        <mxCell id="UVJIutuFLbWsA_wfHDbJ-3" value="" style="edgeStyle=orthogonalEdgeStyle;rounded=0;orthogonalLoop=1;jettySize=auto;html=1;" parent="UVJIutuFLbWsA_wfHDbJ-2" source="UVJIutuFLbWsA_wfHDbJ-4" target="UVJIutuFLbWsA_wfHDbJ-5" edge="1">
          <mxGeometry relative="1" as="geometry" />
        </mxCell>
        <mxCell id="UVJIutuFLbWsA_wfHDbJ-4" value="Inicio" style="ellipse;whiteSpace=wrap;html=1;" parent="UVJIutuFLbWsA_wfHDbJ-2" vertex="1">
          <mxGeometry x="50" y="30" width="120" height="80" as="geometry" />
        </mxCell>
        <mxCell id="UVJIutuFLbWsA_wfHDbJ-5" value="Hace traspaso a OTC una vez que se concreta la venta" style="whiteSpace=wrap;html=1;" parent="UVJIutuFLbWsA_wfHDbJ-2" vertex="1">
          <mxGeometry x="50" y="210" width="120" height="60" as="geometry" />
        </mxCell>
        <mxCell id="UVJIutuFLbWsA_wfHDbJ-6" value="Finanzas" style="swimlane;startSize=20;" parent="UVJIutuFLbWsA_wfHDbJ-1" vertex="1">
          <mxGeometry x="240" width="280" height="1040" as="geometry" />
        </mxCell>
        <mxCell id="UVJIutuFLbWsA_wfHDbJ-7" value="Crea orden de ventas y da entrada de la venta" style="shape=document;whiteSpace=wrap;html=1;boundedLbl=1;" parent="UVJIutuFLbWsA_wfHDbJ-6" vertex="1">
          <mxGeometry x="50" y="200" width="120" height="80" as="geometry" />
        </mxCell>
        <mxCell id="UVJIutuFLbWsA_wfHDbJ-8" value="" style="edgeStyle=orthogonalEdgeStyle;rounded=0;orthogonalLoop=1;jettySize=auto;html=1;exitX=1;exitY=0.5;exitDx=0;exitDy=0;" parent="UVJIutuFLbWsA_wfHDbJ-6" source="UVJIutuFLbWsA_wfHDbJ-10" target="UVJIutuFLbWsA_wfHDbJ-12" edge="1">
          <mxGeometry relative="1" as="geometry" />
        </mxCell>
        <mxCell id="UVJIutuFLbWsA_wfHDbJ-9" value="Sí" style="edgeLabel;html=1;align=center;verticalAlign=middle;resizable=0;points=[];" parent="UVJIutuFLbWsA_wfHDbJ-8" vertex="1" connectable="0">
          <mxGeometry x="-0.2" y="-1" relative="1" as="geometry">
            <mxPoint as="offset" />
          </mxGeometry>
        </mxCell>
        <mxCell id="UVJIutuFLbWsA_wfHDbJ-29" style="edgeStyle=orthogonalEdgeStyle;rounded=0;orthogonalLoop=1;jettySize=auto;html=1;entryX=0.25;entryY=0;entryDx=0;entryDy=0;exitX=0;exitY=0.5;exitDx=0;exitDy=0;" parent="UVJIutuFLbWsA_wfHDbJ-6" source="UVJIutuFLbWsA_wfHDbJ-10" target="UVJIutuFLbWsA_wfHDbJ-14" edge="1">
          <mxGeometry relative="1" as="geometry" />
        </mxCell>
        <mxCell id="UVJIutuFLbWsA_wfHDbJ-10" value="¿Factura anticipo?" style="rhombus;whiteSpace=wrap;html=1;" parent="UVJIutuFLbWsA_wfHDbJ-6" vertex="1">
          <mxGeometry x="70" y="300" width="80" height="80" as="geometry" />
        </mxCell>
        <mxCell id="UVJIutuFLbWsA_wfHDbJ-11" value="" style="edgeStyle=orthogonalEdgeStyle;rounded=0;orthogonalLoop=1;jettySize=auto;html=1;" parent="UVJIutuFLbWsA_wfHDbJ-6" source="UVJIutuFLbWsA_wfHDbJ-7" target="UVJIutuFLbWsA_wfHDbJ-10" edge="1">
          <mxGeometry relative="1" as="geometry" />
        </mxCell>
        <mxCell id="UVJIutuFLbWsA_wfHDbJ-12" value="Genera factura anticipo y la manda a cobranza" style="shape=document;whiteSpace=wrap;html=1;boundedLbl=1;" parent="UVJIutuFLbWsA_wfHDbJ-6" vertex="1">
          <mxGeometry x="134" y="420" width="120" height="80" as="geometry" />
        </mxCell>
        <mxCell id="UVJIutuFLbWsA_wfHDbJ-13" value="" style="edgeStyle=orthogonalEdgeStyle;rounded=0;orthogonalLoop=1;jettySize=auto;html=1;" parent="UVJIutuFLbWsA_wfHDbJ-6" source="UVJIutuFLbWsA_wfHDbJ-14" target="UVJIutuFLbWsA_wfHDbJ-15" edge="1">
          <mxGeometry relative="1" as="geometry" />
        </mxCell>
        <mxCell id="UVJIutuFLbWsA_wfHDbJ-14" value="Entrega de mercancías" style="shape=process;whiteSpace=wrap;html=1;backgroundOutline=1;" parent="UVJIutuFLbWsA_wfHDbJ-6" vertex="1">
          <mxGeometry x="10" y="545" width="120" height="60" as="geometry" />
        </mxCell>
        <mxCell id="UVJIutuFLbWsA_wfHDbJ-15" value="Factura final" style="shape=document;whiteSpace=wrap;html=1;boundedLbl=1;" parent="UVJIutuFLbWsA_wfHDbJ-6" vertex="1">
          <mxGeometry x="10" y="640" width="120" height="80" as="geometry" />
        </mxCell>
        <mxCell id="UVJIutuFLbWsA_wfHDbJ-16" value="Declara ingresos por productos entregados&amp;nbsp;" style="shape=document;whiteSpace=wrap;html=1;boundedLbl=1;" parent="UVJIutuFLbWsA_wfHDbJ-6" vertex="1">
          <mxGeometry x="10" y="730" width="120" height="80" as="geometry" />
        </mxCell>
        <mxCell id="UVJIutuFLbWsA_wfHDbJ-17" value="" style="edgeStyle=orthogonalEdgeStyle;rounded=0;orthogonalLoop=1;jettySize=auto;html=1;" parent="UVJIutuFLbWsA_wfHDbJ-6" source="UVJIutuFLbWsA_wfHDbJ-15" target="UVJIutuFLbWsA_wfHDbJ-16" edge="1">
          <mxGeometry relative="1" as="geometry" />
        </mxCell>
        <mxCell id="UVJIutuFLbWsA_wfHDbJ-18" value="" style="edgeStyle=orthogonalEdgeStyle;rounded=0;orthogonalLoop=1;jettySize=auto;html=1;" parent="UVJIutuFLbWsA_wfHDbJ-1" source="UVJIutuFLbWsA_wfHDbJ-5" target="UVJIutuFLbWsA_wfHDbJ-7" edge="1">
          <mxGeometry relative="1" as="geometry" />
        </mxCell>
        <mxCell id="UVJIutuFLbWsA_wfHDbJ-19" value="Cred y cobr" style="swimlane;startSize=20;" parent="UVJIutuFLbWsA_wfHDbJ-1" vertex="1">
          <mxGeometry x="520" width="250" height="1040" as="geometry" />
        </mxCell>
        <mxCell id="UVJIutuFLbWsA_wfHDbJ-20" value="Aplica pago anticipo y se declara el ingreso de recursos" style="shape=document;whiteSpace=wrap;html=1;boundedLbl=1;" parent="UVJIutuFLbWsA_wfHDbJ-19" vertex="1">
          <mxGeometry x="60" y="420" width="120" height="80" as="geometry" />
        </mxCell>
        <mxCell id="UVJIutuFLbWsA_wfHDbJ-21" value="" style="edgeStyle=orthogonalEdgeStyle;rounded=0;orthogonalLoop=1;jettySize=auto;html=1;" parent="UVJIutuFLbWsA_wfHDbJ-19" source="UVJIutuFLbWsA_wfHDbJ-22" target="UVJIutuFLbWsA_wfHDbJ-23" edge="1">
          <mxGeometry relative="1" as="geometry" />
        </mxCell>
        <mxCell id="UVJIutuFLbWsA_wfHDbJ-22" value="Proceso de cobranza" style="shape=process;whiteSpace=wrap;html=1;backgroundOutline=1;" parent="UVJIutuFLbWsA_wfHDbJ-19" vertex="1">
          <mxGeometry x="50" y="740" width="120" height="60" as="geometry" />
        </mxCell>
        <mxCell id="UVJIutuFLbWsA_wfHDbJ-23" value="Aplica pago y declara el ingreso de recursos" style="shape=document;whiteSpace=wrap;html=1;boundedLbl=1;" parent="UVJIutuFLbWsA_wfHDbJ-19" vertex="1">
          <mxGeometry x="50" y="830" width="120" height="80" as="geometry" />
        </mxCell>
        <mxCell id="UVJIutuFLbWsA_wfHDbJ-24" value="Fin" style="ellipse;whiteSpace=wrap;html=1;" parent="UVJIutuFLbWsA_wfHDbJ-19" vertex="1">
          <mxGeometry x="50" y="950" width="120" height="60" as="geometry" />
        </mxCell>
        <mxCell id="UVJIutuFLbWsA_wfHDbJ-25" value="" style="edgeStyle=orthogonalEdgeStyle;rounded=0;orthogonalLoop=1;jettySize=auto;html=1;" parent="UVJIutuFLbWsA_wfHDbJ-19" source="UVJIutuFLbWsA_wfHDbJ-23" target="UVJIutuFLbWsA_wfHDbJ-24" edge="1">
          <mxGeometry relative="1" as="geometry" />
        </mxCell>
        <mxCell id="UVJIutuFLbWsA_wfHDbJ-26" value="" style="edgeStyle=orthogonalEdgeStyle;rounded=0;orthogonalLoop=1;jettySize=auto;html=1;" parent="UVJIutuFLbWsA_wfHDbJ-1" source="UVJIutuFLbWsA_wfHDbJ-12" target="UVJIutuFLbWsA_wfHDbJ-20" edge="1">
          <mxGeometry relative="1" as="geometry" />
        </mxCell>
        <mxCell id="UVJIutuFLbWsA_wfHDbJ-27" style="edgeStyle=orthogonalEdgeStyle;rounded=0;orthogonalLoop=1;jettySize=auto;html=1;entryX=1;entryY=0.5;entryDx=0;entryDy=0;" parent="UVJIutuFLbWsA_wfHDbJ-1" source="UVJIutuFLbWsA_wfHDbJ-20" target="UVJIutuFLbWsA_wfHDbJ-14" edge="1">
          <mxGeometry relative="1" as="geometry">
            <Array as="points">
              <mxPoint x="690" y="575" />
            </Array>
          </mxGeometry>
        </mxCell>
        <mxCell id="UVJIutuFLbWsA_wfHDbJ-28" style="edgeStyle=orthogonalEdgeStyle;rounded=0;orthogonalLoop=1;jettySize=auto;html=1;" parent="UVJIutuFLbWsA_wfHDbJ-1" source="UVJIutuFLbWsA_wfHDbJ-16" target="UVJIutuFLbWsA_wfHDbJ-22" edge="1">
          <mxGeometry relative="1" as="geometry" />
        </mxCell>
      </root>
    </mxGraphModel>
  </diagram>
</mxfile>
